# xmcd
#
# Track frame offsets:
#	150
#	19257
#	36555
#	50960
#	75082
#	94325
#	100127
#	122452
#	141627
#	155295
#	187522
#	203477
#	221162
#	234112
#	251775
#	269415
#	287090
#	307592
#
# Disc length: 4241 seconds
#
# Revision: 3
# Processed by: cddbd v1.5.2PL0 Copyright (c) Steve Scherf et al.
# Submitted via: dBpowerAMP V4.0
#
DISCID=f4108f12
DTITLE=Κώστας Τουρνάς - Live 98 στο Κεντρί
DYEAR=1998
DGENRE=Rock
TTITLE0=Κρυφό σχολειό
TTITLE1=Ακαπέλα
TTITLE2=Μιάς νύχτας έρωτας
TTITLE3=Σταματήστε να κατέβω
TTITLE4=Του έρωτα
TTITLE5=Δεν ξαναπερνώ
TTITLE6=Βασιλικός-Καραγκούνα
TTITLE7=Πάει καιρός
TTITLE8=Δεν λέει
TTITLE9=Απέραντα χωράφια
TTITLE10=Ανοίγει ο ουρανός
TTITLE11=Η φλέβα
TTITLE12=Πάλι σ' εκείνη
TTITLE13=Λεν'
TTITLE14=Κυρίες και Κύριοι
TTITLE15=Καθρέφτης
TTITLE16=Ψάξε με
TTITLE17=Τα ζεϊμπέκικά σου μάτια
EXTD=
EXTT0=
EXTT1=
EXTT2=
EXTT3=
EXTT4=
EXTT5=
EXTT6=
EXTT7=
EXTT8=
EXTT9=
EXTT10=
EXTT11=
EXTT12=
EXTT13=
EXTT14=
EXTT15=
EXTT16=
EXTT17=
PLAYORDER=
